<svg viewBox="0 0 1200 500" xmlns="http://www.w3.org/2000/svg" role="img" aria-label="Illustration of a coin and connected nodes, representing crypto and blockchain law">
  <rect width="1200" height="500" fill="#FAF8F5"/>
  <g opacity="0.5">
    <circle cx="90" cy="100" r="2.5" fill="#141D2E"/><circle cx="150" cy="100" r="2.5" fill="#141D2E"/>
    <circle cx="90" cy="140" r="2.5" fill="#141D2E"/><circle cx="150" cy="140" r="2.5" fill="#141D2E"/>
    <circle cx="1060" cy="380" r="2.5" fill="#141D2E"/><circle cx="1120" cy="380" r="2.5" fill="#141D2E"/>
    <circle cx="1060" cy="420" r="2.5" fill="#141D2E"/><circle cx="1120" cy="420" r="2.5" fill="#141D2E"/>
  </g>
  <circle cx="600" cy="250" r="150" fill="#F3A916" opacity="0.1"/>

  <g transform="translate(600,250)">
    <circle cx="-130" cy="-60" r="10" fill="#141D2E"/>
    <circle cx="130" cy="-60" r="10" fill="#141D2E"/>
    <circle cx="-160" cy="60" r="10" fill="#141D2E"/>
    <circle cx="160" cy="60" r="10" fill="#141D2E"/>
    <circle cx="0" cy="130" r="10" fill="#141D2E"/>
    <line x1="-130" y1="-60" x2="0" y2="0" stroke="#141D2E" stroke-width="4"/>
    <line x1="130" y1="-60" x2="0" y2="0" stroke="#141D2E" stroke-width="4"/>
    <line x1="-160" y1="60" x2="0" y2="0" stroke="#141D2E" stroke-width="4"/>
    <line x1="160" y1="60" x2="0" y2="0" stroke="#141D2E" stroke-width="4"/>
    <line x1="0" y1="130" x2="0" y2="0" stroke="#141D2E" stroke-width="4"/>

    <circle cx="0" cy="0" r="68" fill="#F3A916" stroke="#141D2E" stroke-width="5"/>
    <circle cx="0" cy="0" r="50" fill="none" stroke="#141D2E" stroke-width="3" opacity="0.6"/>
    <text x="0" y="16" font-family="Georgia, serif" font-size="52" fill="#141D2E" text-anchor="middle">&#8383;</text>
  </g>
</svg>
